
    <svg
      width="400"
      viewBox="0 0 104 28"
      preserveAspectRatio="xMinYMid meet"
      fill="none"
      xmlns="http://www.w3.org/2000/svg"
    >
      <g clipPath="url(#logo_clip0)">
        <path
          fill="#CCC"
          d="M16.2854 10.4958C16.2854 9.81862 15.8452 9.58162 15.2696 9.58162C14.3216 9.58162 13.7799 9.98791 13.7799 11.1729V20.9915H10.3265V13.4752C10.3265 12.7642 9.95405 12.4934 9.37848 12.4934C8.36276 12.4934 7.82104 12.9335 7.82104 14.1185V21.0254H4.33374V11.9178H6.33132L6.77146 13.3398H6.94075C6.94075 10.2588 8.49819 9.0399 10.3603 9.0399C11.4438 9.0399 12.3918 9.41233 12.7642 10.4619H12.9335C12.9335 7.82104 14.3894 6.12817 16.8609 6.12817C18.9262 6.12817 19.7727 7.44861 19.7727 9.31076V20.9915H16.2854V10.4958ZM0 6.97461V21.0254L12.1886 28.0339L24.3773 21.0254V6.97461L12.1886 0L0 6.97461Z"
        />
        <path
          d="M42.8294 11.4099C42.8294 10.5296 43.2018 10.1234 44.2514 10.1234C45.2671 10.1234 45.6734 10.4958 45.6734 11.3761V21.0254H49.3639V11.3761C49.3639 8.0242 48.145 6.77148 45.8088 6.77148C44.4546 6.77148 43.2695 7.61792 42.7278 8.97221H42.2538L42.4908 11.5792L42.8294 11.4099ZM35.9225 9.17535L35.2792 7.00849H32.6045V21.0254H36.2949V9.17535H35.9225ZM36.2949 11.4099C36.2949 10.3942 36.8028 10.1234 37.7508 10.1234C38.6311 10.1234 39.139 10.3604 39.139 11.3761V21.0254H42.8294V11.4099C42.8294 8.59978 41.6105 6.77148 39.2744 6.77148C37.9201 6.77148 36.6674 7.61792 36.1257 8.97221H35.7194L35.9225 11.5792L36.2949 11.4099Z"
          fill="#CCC"
        />
        <path
          d="M55.4247 7.0083H51.7681V21.0252H55.4247V7.0083Z"
          fill="#CCC"
        />
        <path
          d="M64.8028 18.8587H65.1752L64.972 16.3871H64.5996C64.5996 17.5044 63.9902 18.08 62.9745 18.08C61.9926 18.08 61.3832 17.6737 61.3832 16.1163V11.5455C61.3832 10.1912 61.8233 9.71723 62.7713 9.71723C63.7193 9.71723 64.1595 10.1912 64.1595 10.9699V12.4597H67.9176V11.8502C67.9176 7.92279 65.5815 6.83936 62.7713 6.83936C59.9612 6.83936 57.625 8.02436 57.625 12.2227V15.9808C57.625 19.976 59.5887 21.1271 61.5863 21.1271C63.3807 21.161 64.5319 20.213 64.8028 18.8587ZM65.0059 18.7233L65.6492 21.0256H67.9176V13.6785H64.5658V17.8091L65.0059 18.7233ZM63.1099 16.3871H66.1232V13.6447H63.1099V16.3871Z"
          fill="#CCC"
        />
        <path
          d="M73.5719 15.4726H77.1946V12.527H73.6058V15.4726H73.5719ZM76.7206 21.0252H80.3434V7.0083H76.7206V21.0252ZM70.3555 21.0252H74.0121V7.0083H70.3555V21.0252Z"
          fill="#CCC"
        />
        <path
          d="M82.0361 10.157H92.0917V7.0083H82.0361V10.157ZM85.2526 21.0252H88.8753V7.34687H85.2526V21.0252Z"
          fill="#CCC"
        />
        <path
          d="M96.5947 21.0252H100.251V14.3553H96.5947V21.0252ZM98.66 13.8136L96.764 7.0083H93.0059L96.6963 17.7411H100.048L103.874 7.0083H100.488L98.8293 13.8136L99.1679 13.5766H98.4569L98.66 13.8136Z"
          fill="#CCC"
        />
      </g>
      <defs>
        <clipPath id="logo_clip0">
          <rect width="103.874" height="28" fill="#CCC" />
        </clipPath>
      </defs>
    </svg>